solid ASCII
  facet normal 0.000000e+00 0.000000e+00 1.000000e+00
    outer loop
      vertex   -9.999995e+01 1.910300e+02 1.000000e+01
      vertex   -1.499999e+02 1.910300e+02 1.000000e+01
      vertex   -9.999995e+01 1.736000e+02 1.000000e+01
    endloop
  endfacet
  facet normal 0.000000e+00 0.000000e+00 1.000000e+00
    outer loop
      vertex   -9.999995e+01 1.736000e+02 1.000000e+01
      vertex   -1.499999e+02 1.910300e+02 1.000000e+01
      vertex   -1.499999e+02 1.736000e+02 1.000000e+01
    endloop
  endfacet
  facet normal -1.000000e+00 0.000000e+00 0.000000e+00
    outer loop
      vertex   -1.499999e+02 1.910300e+02 3.926068e+00
      vertex   -1.499999e+02 1.875501e+02 4.193204e+00
      vertex   -1.499999e+02 1.910300e+02 1.000000e+01
    endloop
  endfacet
  facet normal -1.000000e+00 0.000000e+00 0.000000e+00
    outer loop
      vertex   -1.499999e+02 1.910300e+02 1.000000e+01
      vertex   -1.499999e+02 1.875501e+02 4.193204e+00
      vertex   -1.499999e+02 1.840661e+02 4.401057e+00
    endloop
  endfacet
  facet normal -1.000000e+00 0.000000e+00 0.000000e+00
    outer loop
      vertex   -1.499999e+02 1.910300e+02 1.000000e+01
      vertex   -1.499999e+02 1.840661e+02 4.401057e+00
      vertex   -1.499999e+02 1.805791e+02 4.549567e+00
    endloop
  endfacet
  facet normal -1.000000e+00 -0.000000e+00 0.000000e+00
    outer loop
      vertex   -1.499999e+02 1.910300e+02 1.000000e+01
      vertex   -1.499999e+02 1.805791e+02 4.549567e+00
      vertex   -1.499999e+02 1.736000e+02 1.000000e+01
    endloop
  endfacet
  facet normal -1.000000e+00 0.000000e+00 0.000000e+00
    outer loop
      vertex   -1.499999e+02 1.736000e+02 1.000000e+01
      vertex   -1.499999e+02 1.805791e+02 4.549567e+00
      vertex   -1.499999e+02 1.770900e+02 4.638689e+00
    endloop
  endfacet
  facet normal -1.000000e+00 0.000000e+00 0.000000e+00
    outer loop
      vertex   -1.499999e+02 1.736000e+02 1.000000e+01
      vertex   -1.499999e+02 1.770900e+02 4.638689e+00
      vertex   -1.499999e+02 1.736000e+02 4.668400e+00
    endloop
  endfacet
  facet normal 0.000000e+00 -1.000000e+00 0.000000e+00
    outer loop
      vertex   -1.499999e+02 1.736000e+02 1.000000e+01
      vertex   -1.499999e+02 1.736000e+02 4.668400e+00
      vertex   -9.999995e+01 1.736000e+02 1.000000e+01
    endloop
  endfacet
  facet normal 0.000000e+00 -1.000000e+00 -0.000000e+00
    outer loop
      vertex   -9.999995e+01 1.736000e+02 1.000000e+01
      vertex   -1.499999e+02 1.736000e+02 4.668400e+00
      vertex   -9.999995e+01 1.736000e+02 4.668400e+00
    endloop
  endfacet
  facet normal 1.000000e+00 4.083657e-15 -0.000000e+00
    outer loop
      vertex   -9.999995e+01 1.910300e+02 3.926068e+00
      vertex   -9.999995e+01 1.910300e+02 1.000000e+01
      vertex   -9.999995e+01 1.875501e+02 4.193204e+00
    endloop
  endfacet
  facet normal 1.000000e+00 1.409639e-16 2.362802e-15
    outer loop
      vertex   -9.999995e+01 1.875501e+02 4.193204e+00
      vertex   -9.999995e+01 1.910300e+02 1.000000e+01
      vertex   -9.999995e+01 1.840661e+02 4.401057e+00
    endloop
  endfacet
  facet normal 1.000000e+00 1.026592e-16 2.410445e-15
    outer loop
      vertex   -9.999995e+01 1.840661e+02 4.401057e+00
      vertex   -9.999995e+01 1.910300e+02 1.000000e+01
      vertex   -9.999995e+01 1.805791e+02 4.549567e+00
    endloop
  endfacet
  facet normal 1.000000e+00 0.000000e+00 2.607289e-15
    outer loop
      vertex   -9.999995e+01 1.805791e+02 4.549567e+00
      vertex   -9.999995e+01 1.910300e+02 1.000000e+01
      vertex   -9.999995e+01 1.736000e+02 1.000000e+01
    endloop
  endfacet
  facet normal 1.000000e+00 6.885180e-17 2.695451e-15
    outer loop
      vertex   -9.999995e+01 1.805791e+02 4.549567e+00
      vertex   -9.999995e+01 1.736000e+02 1.000000e+01
      vertex   -9.999995e+01 1.770900e+02 4.638689e+00
    endloop
  endfacet
  facet normal 1.000000e+00 -4.071825e-15 0.000000e+00
    outer loop
      vertex   -9.999995e+01 1.770900e+02 4.638689e+00
      vertex   -9.999995e+01 1.736000e+02 1.000000e+01
      vertex   -9.999995e+01 1.736000e+02 4.668400e+00
    endloop
  endfacet
  facet normal 0.000000e+00 -7.653952e-02 -9.970665e-01
    outer loop
      vertex   -1.499999e+02 1.910300e+02 3.926068e+00
      vertex   -9.999995e+01 1.910300e+02 3.926068e+00
      vertex   -1.499999e+02 1.875501e+02 4.193204e+00
    endloop
  endfacet
  facet normal 0.000000e+00 -7.653952e-02 -9.970665e-01
    outer loop
      vertex   -1.499999e+02 1.875501e+02 4.193204e+00
      vertex   -9.999995e+01 1.910300e+02 3.926068e+00
      vertex   -9.999995e+01 1.875501e+02 4.193204e+00
    endloop
  endfacet
  facet normal 0.000000e+00 -5.955376e-02 -9.982251e-01
    outer loop
      vertex   -1.499999e+02 1.875501e+02 4.193204e+00
      vertex   -9.999995e+01 1.875501e+02 4.193204e+00
      vertex   -1.499999e+02 1.840661e+02 4.401057e+00
    endloop
  endfacet
  facet normal 0.000000e+00 -5.955376e-02 -9.982251e-01
    outer loop
      vertex   -1.499999e+02 1.840661e+02 4.401057e+00
      vertex   -9.999995e+01 1.875501e+02 4.193204e+00
      vertex   -9.999995e+01 1.840661e+02 4.401057e+00
    endloop
  endfacet
  facet normal 0.000000e+00 -4.255073e-02 -9.990943e-01
    outer loop
      vertex   -1.499999e+02 1.840661e+02 4.401057e+00
      vertex   -9.999995e+01 1.840661e+02 4.401057e+00
      vertex   -1.499999e+02 1.805791e+02 4.549567e+00
    endloop
  endfacet
  facet normal 0.000000e+00 -4.255073e-02 -9.990943e-01
    outer loop
      vertex   -1.499999e+02 1.805791e+02 4.549567e+00
      vertex   -9.999995e+01 1.840661e+02 4.401057e+00
      vertex   -9.999995e+01 1.805791e+02 4.549567e+00
    endloop
  endfacet
  facet normal 0.000000e+00 -2.553537e-02 -9.996739e-01
    outer loop
      vertex   -1.499999e+02 1.805791e+02 4.549567e+00
      vertex   -9.999995e+01 1.805791e+02 4.549567e+00
      vertex   -1.499999e+02 1.770900e+02 4.638689e+00
    endloop
  endfacet
  facet normal 0.000000e+00 -2.553537e-02 -9.996739e-01
    outer loop
      vertex   -1.499999e+02 1.770900e+02 4.638689e+00
      vertex   -9.999995e+01 1.805791e+02 4.549567e+00
      vertex   -9.999995e+01 1.770900e+02 4.638689e+00
    endloop
  endfacet
  facet normal 0.000000e+00 -8.512614e-03 -9.999638e-01
    outer loop
      vertex   -1.499999e+02 1.770900e+02 4.638689e+00
      vertex   -9.999995e+01 1.770900e+02 4.638689e+00
      vertex   -1.499999e+02 1.736000e+02 4.668400e+00
    endloop
  endfacet
  facet normal 0.000000e+00 -8.512614e-03 -9.999638e-01
    outer loop
      vertex   -1.499999e+02 1.736000e+02 4.668400e+00
      vertex   -9.999995e+01 1.770900e+02 4.638689e+00
      vertex   -9.999995e+01 1.736000e+02 4.668400e+00
    endloop
  endfacet
  facet normal 0.000000e+00 1.000000e+00 0.000000e+00
    outer loop
      vertex   -9.999995e+01 1.910300e+02 1.000000e+01
      vertex   -9.999995e+01 1.910300e+02 3.926068e+00
      vertex   -1.499999e+02 1.910300e+02 1.000000e+01
    endloop
  endfacet
  facet normal 0.000000e+00 1.000000e+00 0.000000e+00
    outer loop
      vertex   -1.499999e+02 1.910300e+02 1.000000e+01
      vertex   -9.999995e+01 1.910300e+02 3.926068e+00
      vertex   -1.499999e+02 1.910300e+02 3.926068e+00
    endloop
  endfacet
endsolid
